<?xml version="1.0" encoding="utf-8"?>
<!-- Generator: Adobe Illustrator 22.0.1, SVG Export Plug-In . SVG Version: 6.00 Build 0)  -->
<svg version="1.1" id="Layer_1" xmlns="http://www.w3.org/2000/svg" xmlns:xlink="http://www.w3.org/1999/xlink" x="0px" y="0px"
	 viewBox="0 0 143 183" style="enable-background:new 0 0 143 183;" xml:space="preserve">
<style type="text/css">
	.st0{fill:none;stroke:#CCCCCC;stroke-width:4;stroke-linecap:round;stroke-miterlimit:10;}
	.st1{fill:#ED1C24;}
	.st2{font-family:'PTF-NORDIC-Round';}
	.st3{font-size:35.9066px;glyph-orientation-vertical:0;writing-mode:tb;}
	.st4{fill:none;stroke:#CCCCCC;stroke-width:3;stroke-linecap:round;stroke-miterlimit:10;}
	.st5{fill:none;stroke:#CCCCCC;stroke-width:4.9905;stroke-linecap:round;stroke-miterlimit:10;}
</style>
<g>
	<path class="st0" d="M92,41v-2.8c0-12.8-10.4-23.1-23.1-23.1S45.8,25.4,45.8,38.2V57"/>
	<line class="st0" x1="46" y1="131.7" x2="46" y2="67"/>
	<path class="st0" d="M19.7,160.6c0,7.2,5.9,13.1,13.1,13.1S46,167.9,46,160.6v-17.9"/>
	<text transform="matrix(1 0 0 1 19.5244 45.5107)" class="st1 st2 st3">THE</text>
	<text transform="matrix(1 0 0 1 92.5244 45.5173)" class="st1 st2 st3">ART</text>
	<text transform="matrix(1 0 0 1 125.5244 9.5244)" class="st1 st2 st3">POST</text>
	<path class="st4" d="M95.5,159.5"/>
	<path class="st5" d="M125.5,156.9c0,9-7.3,16.4-16.4,16.4s-16.4-7.3-16.4-16.4"/>
</g>
</svg>
